<mxfile host="app.diagrams.net" modified="2023-03-27T00:32:36.437Z" agent="Mozilla/5.0 (Windows NT 10.0; Win64; x64) AppleWebKit/537.36 (KHTML, like Gecko) Chrome/110.0.0.0 Safari/537.36 OPR/96.0.0.0" etag="n157EZEtxZIB6PmAUv6i" version="21.1.1" type="device">
  <diagram name="Страница 1" id="0BE202PhdpLElcm5FOQ7">
    <mxGraphModel dx="1393" dy="758" grid="1" gridSize="10" guides="1" tooltips="1" connect="1" arrows="1" fold="1" page="1" pageScale="1" pageWidth="827" pageHeight="1169" math="0" shadow="0">
      <root>
        <mxCell id="0" />
        <mxCell id="1" parent="0" />
        <mxCell id="LqLla8D-oNmbQj406vh4-1" value="Сервер&lt;br&gt;MS SQL 2022" style="shape=cube;whiteSpace=wrap;html=1;boundedLbl=1;backgroundOutline=1;darkOpacity=0.05;darkOpacity2=0.1;" vertex="1" parent="1">
          <mxGeometry x="310" y="210" width="120" height="80" as="geometry" />
        </mxCell>
        <mxCell id="LqLla8D-oNmbQj406vh4-2" value="WorkStation&lt;br&gt;Клиент" style="shape=cube;whiteSpace=wrap;html=1;boundedLbl=1;backgroundOutline=1;darkOpacity=0.05;darkOpacity2=0.1;" vertex="1" parent="1">
          <mxGeometry x="170" y="360" width="120" height="80" as="geometry" />
        </mxCell>
        <mxCell id="LqLla8D-oNmbQj406vh4-3" value="WorkStation&lt;br&gt;Сервер" style="shape=cube;whiteSpace=wrap;html=1;boundedLbl=1;backgroundOutline=1;darkOpacity=0.05;darkOpacity2=0.1;" vertex="1" parent="1">
          <mxGeometry x="440" y="360" width="120" height="80" as="geometry" />
        </mxCell>
        <mxCell id="LqLla8D-oNmbQj406vh4-4" value="" style="endArrow=none;html=1;rounded=0;exitX=0;exitY=0;exitDx=100;exitDy=0;exitPerimeter=0;entryX=0.533;entryY=1.038;entryDx=0;entryDy=0;entryPerimeter=0;" edge="1" parent="1" source="LqLla8D-oNmbQj406vh4-2" target="LqLla8D-oNmbQj406vh4-1">
          <mxGeometry width="50" height="50" relative="1" as="geometry">
            <mxPoint x="390" y="510" as="sourcePoint" />
            <mxPoint x="440" y="460" as="targetPoint" />
          </mxGeometry>
        </mxCell>
        <mxCell id="LqLla8D-oNmbQj406vh4-5" value="" style="endArrow=none;html=1;rounded=0;exitX=0;exitY=0;exitDx=50;exitDy=0;exitPerimeter=0;entryX=0.533;entryY=1.038;entryDx=0;entryDy=0;entryPerimeter=0;" edge="1" parent="1" source="LqLla8D-oNmbQj406vh4-3" target="LqLla8D-oNmbQj406vh4-1">
          <mxGeometry width="50" height="50" relative="1" as="geometry">
            <mxPoint x="280" y="370" as="sourcePoint" />
            <mxPoint x="384" y="303" as="targetPoint" />
          </mxGeometry>
        </mxCell>
        <mxCell id="LqLla8D-oNmbQj406vh4-6" value="CleanBrain.exe" style="text;html=1;align=center;verticalAlign=middle;resizable=0;points=[];autosize=1;strokeColor=none;fillColor=none;" vertex="1" parent="1">
          <mxGeometry x="170" y="440" width="110" height="30" as="geometry" />
        </mxCell>
        <mxCell id="LqLla8D-oNmbQj406vh4-7" value="CleanBrain.exe" style="text;html=1;align=center;verticalAlign=middle;resizable=0;points=[];autosize=1;strokeColor=none;fillColor=none;" vertex="1" parent="1">
          <mxGeometry x="480" y="440" width="110" height="30" as="geometry" />
        </mxCell>
      </root>
    </mxGraphModel>
  </diagram>
</mxfile>
